PathFileType	4	(X/Y/Z)	C:/Users/beibeiliu/ov580/test_trc/User2\sequence.21_training_dense_right.trc
DataRate	CameraRate	NumFrames	NumMarkers	Units	OrigDataRate	OrigDataStartFrame	OrigNumFrames
120	120	22	19	mm	120	41	322
Frame#	Time	ThumbCMC			ThumbMCP			ThumbIP			ThumbTip			IndexMCP			IndexPIP			IndexTip			MiddleMCP			MiddlePIP			MiddleTip			RingMCP			RingPIP			RingTip			PinkyMCP			PinkyPIP			PinkyTip			BackHand1			BackHand2			BackHand3	
		X0	Y0	Z0	X1	Y1	Z1	X2	Y2	Z2	X3	Y3	Z3	X4	Y4	Z4	X5	Y5	Z5	X6	Y6	Z6	X7	Y7	Z7	X8	Y8	Z8	X9	Y9	Z9	X10	Y10	Z10	X11	Y11	Z11	X12	Y12	Z12	X13	Y13	Z13	X14	Y14	Z14	X15	Y15	Z15	X16	Y16	Z16	X17	Y17	Z17	X18	Y18	Z18	
40	0.333333	95.4365	32.4438	31.1608	62.383	34.4599	13.4071	35.6976	37.6173	-9.19683	17.8863	33.4968	-26.4789	90.7114	21.8561	-48.0484	61.8588	20.5071	-61.8675	26.8555	22.8973	-58.8659	72.7646	-0.523627	-44.5633	44.8033	8.22783	-26.4682	70.2375	10.6468	7.20904	62.4124	-19.179	-31.8148	42.6524	-6.38251	-10.0262	68.9893	-4.47009	14.7044	59.3481	-34.7694	-21.1078	44.2145	-19.8041	5.89731	70.9446	-17.6849	24.1124	116.598	-28.3523	-1.15433	129.98	-32.7423	31.6428	128.107	2.44198	15.8321	
41	0.341667	87.8468	30.6171	36.3348	54.3439	33.9704	19.4365	29.6537	32.823	-7.37329	9.50859	30.3013	-25.8884	85.0201	28.7883	-44.814	56.2229	25.3131	-59.0757	26.1329	24.3895	-58.0386	68.3052	5.59984	-44.0706	41.0732	3.86127	-22.9032	67.2334	7.11688	9.60069	58.9344	-16.6826	-32.0632	40.2133	-8.69751	-11.3226	69.7088	-6.26961	15.8768	62.9651	-35.1586	-21.809	45.6061	-19.5131	5.65524	68.2082	-19.2077	24.6817	118.386	-24.5878	1.29761	126.319	-27.4373	30.9799	124.424	11.3854	20.5888	
42	0.35	79.6243	28.1611	39.308	47.161	27.4	22.4645	20.5001	28.8415	-4.55992	2.56834	24.8728	-24.8118	76.1792	29.7082	-41.9677	52.3336	26.1987	-54.5348	21.8044	19.7462	-55.4506	66.1718	5.17995	-42.3174	38.6169	0.14428	-25.0553	59.8755	5.7193	11.6219	61.7755	-12.4767	-31.6229	40.1272	-13.049	-8.96237	63.3535	-4.85343	16.0056	65.269	-34.8567	-23.4451	44.2705	-28.0616	2.50459	69.2753	-20.2405	25.4892	118.521	-17.2667	2.38776	127.092	-22.9057	31.6215	117.818	16.8477	21.537	
43	0.358333	69.5498	26.9926	45.2987	40.8997	20.5221	24.2999	15.9597	20.1712	-0.404074	0.959369	14.9334	-20.2492	73.312	34.519	-33.435	42.7362	30.3582	-52.3664	18.0405	19.0014	-54.7174	68.8702	11.2554	-37.2144	36.3684	1.94389	-23.4894	53.2585	3.91197	12.0266	64.9696	-11.284	-32.8015	41.6017	-15.7378	-8.54364	64.3562	-11.4599	16.754	68.233	-32.3299	-26.1493	48.3759	-28.4676	0.36076	70.3681	-22.1387	23.3521	118.177	-8.81407	5.172	127.951	-15.2529	34.2599	113.129	17.7596	29.9065	
44	0.366667	62.835	17.0191	46.2722	35.2492	10.5684	27.1475	11.9116	8.37826	0.746614	-2.34161	3.52296	-21.8681	61.668	39.3598	-30.3479	39.4459	31.9993	-45.5444	15.9958	11.082	-54.4813	63.3576	14.938	-35.0659	37.5718	-5.27611	-22.767	52.7465	-0.36649	14.0341	63.0287	-10.8009	-31.7328	43.4229	-20.0252	-9.15838	65.2094	-13.028	16.5898	73.798	-25.1036	-25.1199	53.5365	-32.9753	0.115715	72.1753	-20.1609	20.8741	117.461	0.197398	4.91273	125.747	-11.7566	40.9694	104.631	22.7811	37.802	
45	0.375	57.3833	10.9243	49.7011	29.9205	3.78464	25.0919	7.21333	1.77297	-1.60757	-4.6333	-3.68996	-25.8878	59.1156	38.8907	-22.3965	33.8125	30.8404	-41.2926	11.6875	9.78094	-53.8546	61.3344	18.178	-32.1316	35.9624	-4.29877	-24.8484	52.2512	-4.76327	14.2037	67.387	-5.45116	-29.7096	46.0579	-22.6379	-10.9086	64.8841	-13.4877	17.8869	76.0091	-25.7618	-27.8079	56.703	-32.9677	-5.50662	75.4233	-26.2567	22.8143	113.154	5.80221	11.6607	127.2	-8.48809	43.3583	96.5112	26.6643	41.1107	
46	0.383333	52.205	8.62708	52.3234	29.2736	-0.267262	26.7567	6.28312	-3.12508	-4.39232	-0.827455	-9.63662	-23.6464	51.4888	39.704	-18.9858	33.2504	27.0208	-40.2886	11.8967	5.55315	-55.0699	60.7076	17.0699	-30.1338	35.8661	-7.53012	-22.407	51.5577	-7.1732	14.3141	66.8073	-4.64115	-29.4114	46.5457	-23.9656	-11.4735	65.0338	-14.1357	17.9654	77.0147	-26.0013	-28.8506	59.3838	-37.3934	-1.03763	74.7358	-23.0482	20.3916	113.205	5.24844	8.23628	124.929	-4.78074	40.7332	96.0428	23.279	42.2114	
47	0.391667	54.8403	5.11014	55.168	24.9053	-0.94131	28.2593	5.41776	-4.49538	-0.656968	1.98808	-10.1618	-26.4529	49.1881	40.0398	-16.1443	32.0121	25.71	-40.6024	10.2443	10.1012	-52.2313	59.4586	14.8046	-31.0697	35.4121	-10.208	-20.043	49.2048	-5.61252	17.4047	66.8156	-5.80041	-28.9862	48.1754	-27.8232	-10.2451	63.5996	-16.0151	18.0007	77.0961	-23.5449	-26.7489	57.9066	-33.5959	-3.28524	73.4161	-23.0229	21.7101	114.068	6.47809	12.4572	122.819	-4.11161	46.5227	94.0387	22.1558	47.3604	
48	0.4	50.6248	5.49955	56.1214	22.9812	-1.84988	30.8775	5.24046	-4.77144	-2.37383	-1.13784	-11.136	-23.279	46.1865	37.6904	-20.7205	27.676	30.087	-36.2422	11.9209	8.76588	-51.4951	57.5793	15.1317	-30.3199	33.8991	-8.51178	-21.6358	47.6601	-7.14627	16.8814	62.8361	-4.57043	-28.6236	46.1234	-26.1596	-13.7586	66.76	-15.4503	20.0002	78.2084	-22.5501	-25.7777	59.2728	-39.3076	-2.81981	73.209	-23.7044	21.591	111.837	6.0749	14.7449	122.589	-3.25855	43.8625	91.8417	23.2038	47.3482	
49	0.408333	50.5215	5.30079	54.7136	22.7126	-0.563513	26.6051	3.50056	-5.61526	1.2373	-2.17284	-10.0171	-25.1959	45.6019	37.7424	-15.8475	23.8509	25.1046	-38.3254	6.13118	5.40838	-51.7045	55.4429	20.6464	-25.4792	34.9009	-12.0079	-20.1618	46.7853	-9.26573	15.5542	62.6547	-7.47223	-28.6428	43.6003	-24.4683	-12.2322	63.6902	-15.4934	21.1513	76.3068	-18.539	-24.3493	58.9138	-38.0744	-2.46804	71.5214	-24.6895	22.5077	109.126	9.09589	13.9592	117.304	-1.89569	45.6916	90.6614	24.1868	48.5967	
50	0.416667	44.5651	5.78515	55.6193	18.1924	-2.99888	30.5926	1.91879	-6.43508	2.59752	-6.3222	-9.34363	-24.7834	40.0516	39.8118	-15.4804	20.707	27.7473	-35.6432	4.72759	7.92388	-49.1027	49.4676	18.5239	-27.5364	30.4296	-7.80226	-20.786	48.6601	-11.647	16.2079	61.4743	-6.9989	-28.1205	43.8515	-26.4924	-12.2947	63.4393	-17.492	21.006	73.3118	-19.5514	-23.645	54.5105	-33.9429	-1.58201	74.5121	-27.1052	22.7451	103.94	12.6466	14.4609	116.238	0.55965	46.2219	88.0791	22.0137	49.7082	
51	0.425	43.0808	3.43914	60.334	19.8674	-2.40204	29.3084	2.92537	-7.30443	2.83764	-7.07682	-9.70544	-22.8323	42.0945	38.7456	-12.5944	23.1156	26.9872	-32.5537	1.4717	8.59863	-47.5115	52.3677	19.0643	-23.6502	29.8606	-8.70662	-20.2404	43.5704	-8.52364	20.2947	62.2579	-7.11498	-26.9523	41.3216	-25.7539	-7.65426	62.1339	-17.6232	21.9559	71.0593	-20.0854	-23.3056	56.6274	-38.3282	-2.97157	73.839	-24.1157	25.6307	103.596	11.8217	15.5205	117.767	-3.33837	46.7778	85.8982	24.0289	51.5489	
52	0.433333	44.3768	5.7778	59.0831	18.3118	-2.35205	31.3948	3.31423	-5.3586	1.58931	-10.1888	-8.64125	-19.1674	40.659	36.8387	-15.6036	18.9074	27.8619	-33.9994	2.55629	5.10834	-49.9996	51.3559	16.293	-26.4893	28.541	-7.85881	-18.2041	46.7721	-10.3069	19.1133	57.3141	-7.02553	-25.9459	41.785	-26.3673	-8.70718	61.5785	-17.3766	22.5362	71.4571	-20.1061	-22.557	53.3487	-36.3418	-0.504142	70.6753	-25.7174	25.2197	106.41	8.13052	15.4387	114.991	-4.67859	50.9663	87.5376	20.9943	49.3748	
53	0.441667	47.5619	8.14997	58.7491	19.2127	2.20088	32.9129	2.09461	-1.27926	5.53653	-10.8198	-2.86549	-21.2261	46.3942	37.9712	-14.6255	27.2489	27.8777	-33.6663	7.2959	9.1507	-47.5383	52.9712	18.1414	-25.1889	29.4596	-10.5379	-16.2077	47.0516	-10.4543	18.6808	57.9184	-10.7036	-27.2778	41.081	-27.5728	-9.20567	59.0785	-13.9314	22.9046	72.0696	-24.7507	-22.7825	53.1118	-40.3729	-0.634866	67.1169	-26.7701	25.9542	108.78	3.80196	16.3664	117.058	-6.83551	48.414	90.2835	23.6001	48.9278	
54	0.45	54.3758	10.8465	56.1205	26.8819	6.34272	32.8446	5.20524	6.43538	2.86024	-8.38254	2.28793	-15.5367	51.4816	34.7244	-22.1588	27.6013	26.8789	-38.8747	8.20003	11.9897	-48.4928	55.5061	13.8151	-29.1728	29.3799	-7.87533	-15.4835	43.9026	-5.61111	18.2985	56.1777	-11.3102	-26.099	39.1337	-27.6688	-8.13175	56.898	-17.0151	21.8797	65.5406	-29.2633	-21.8446	48.2304	-36.9478	4.3934	70.4808	-26.6946	29.3141	107.81	-0.938164	12.3013	119.221	-13.9869	46.1563	96.3893	22.4611	42.5249	
55	0.458333	60.2489	16.3011	51.2464	31.6046	14.7249	26.7836	7.82851	14.423	4.29107	-6.18821	10.2049	-19.6428	57.8978	32.6093	-26.2072	34.4381	23.7693	-41.7853	10.735	13.006	-49.3496	58.7874	8.54365	-32.0981	29.0965	-4.22452	-18.206	48.7449	-1.47155	18.5123	57.8672	-17.5782	-27.1634	33.3966	-19.6276	-4.42157	56.9466	-16.8578	22.995	62.7263	-33.0296	-20.2161	41.4583	-36.6543	7.2402	61.9564	-23.5904	28.7585	109.88	-11.3253	8.51043	117.643	-20.9954	44.8824	101.097	19.4486	38.1547	
56	0.466667	66.4364	21.9212	46.0071	34.4795	22.0096	24.2771	12.445	22.4919	-0.424438	-4.98681	19.6774	-19.499	63.797	23.0617	-33.1148	39.7881	22.5721	-45.4491	8.90351	14.2088	-51.2519	59.2854	1.89344	-34.5917	28.2674	-3.82961	-20.4338	46.6532	2.0817	15.593	52.7049	-18.5872	-25.7666	28.3308	-20.8898	-3.31554	52.3862	-15.0883	22.4514	53.6859	-35.2545	-17.0264	33.1166	-32.7348	9.7706	58.3687	-26.282	30.6885	105.73	-24.4045	9.78083	115.172	-27.598	43.4419	106.38	9.70709	31.1606	
57	0.475	72.7946	24.9386	41.4113	39.9071	28.8527	17.8338	13.8788	30.4885	-6.48076	-1.07409	25.8885	-18.6956	67.6465	15.9884	-37.8057	39.5408	14.0627	-50.9406	7.5174	12.5992	-50.5651	55.0062	-7.75716	-35.0846	24.3896	0.15475	-16.8378	47.0794	3.28128	14.5357	44.9963	-25.9311	-22.7813	22.9173	-15.3005	-1.93935	51.2899	-6.94783	22.1369	40.0796	-40.5096	-11.9025	27.6144	-23.3707	12.0306	56.7866	-20.3108	32.8232	99.8511	-31.3166	10.2951	108.963	-35.3239	41.0589	108.576	0.435256	26.0353	
58	0.483333	78.8009	23.4966	33.2329	45.9176	32.1678	17.1479	19.944	36.4011	-5.39899	0.505522	30.4937	-21.5676	65.847	4.65587	-39.9754	36.8575	11.4372	-54.069	7.94554	15.4667	-51.9552	51.7194	-13.3293	-34.3296	21.9755	-0.144138	-14.2191	50.7305	8.5268	13.5237	38.4757	-23.7082	-21.0946	20.4625	-11.5903	3.33959	48.4295	-6.20769	22.8254	32.3637	-40.3638	-5.94414	22.9308	-19.108	18.1339	51.9009	-18.8442	35.5266	90.4361	-42.1609	13.6078	104.371	-41.2616	47.3033	109.305	-7.72683	24.1552	
59	0.491667	84.0857	20.2409	29.3684	52.4887	35.4745	11.0665	25.0257	31.69	-10.4489	5.00219	34.4789	-22.1517	64.3331	-1.32322	-43.4481	35.9489	3.33902	-53.3425	5.26651	11.2335	-51.2255	43.1454	-16.8981	-33.8062	20.9412	2.87242	-14.6988	48.2891	7.096	12.6832	29.7364	-27.2192	-16.4085	17.3894	-6.8544	5.70446	47.643	-7.14336	24.8566	25.9752	-40.135	-0.0435708	19.3812	-15.1549	22.1727	48.8933	-16.757	33.6242	82.5207	-46.6028	11.5942	99.9585	-45.1554	47.8613	108.635	-17.1435	21.8608	
60	0.5	90.0942	19.9743	25.9237	58.6374	29.1684	7.90754	30.8247	35.3954	-13.4421	8.71189	38.5149	-27.0093	58.3697	-12.0967	-44.9138	30.8464	0.698919	-55.6541	3.76542	14.554	-53.9626	42.9767	-21.4363	-32.7906	21.936	4.82807	-18.7313	53.5087	4.27604	12.3019	22.6263	-25.5707	-12.4103	17.917	-3.895	6.72804	50.0493	-7.21767	24.5535	20.0525	-37.8792	6.10866	23.6789	-7.80484	22.0961	48.1753	-15.7957	37.6124	76.9835	-53.3169	16.0886	95.4069	-49.6106	48.0832	105.985	-25.1305	16.6916	
61	0.508333	91.779	13.404	19.7564	63.6936	32.2723	4.20535	34.2271	36.6659	-17.5865	13.626	35.1957	-27.4444	60.1985	-17.5792	-43.2058	28.5268	-6.88859	-53.3974	7.39981	11.9085	-53.8899	37.9458	-26.4418	-27.8189	22.1833	5.86329	-16.7979	52.7165	6.9494	8.33406	23.8107	-24.5211	-11.3129	17.7977	-0.36423	4.67424	49.7927	-5.13961	24.2108	17.7333	-31.5307	6.58938	19.9433	-6.39605	24.1519	53.8328	-15.2766	35.532	70.5109	-55.1145	18.5929	91.0801	-51.9563	49.1134	105.673	-28.5137	16.41	
